# xmcd
#
# Track frame offsets:
#	150
#	10351
#	24034
#	38340
#	50231
#	68351
#	88518
#	99286
#	114229
#	128140
#	143440
#	162824
#	175362
#	187292
#
# Disc length: 2618 seconds
#
# Revision: 0
# Processed by: cddbd v1.5.2PL0 Copyright (c) Steve Scherf et al.
# Submitted via: EasyCDDAExtractor 12.0.1.1
#
DISCID=a50a380e
DTITLE=Bobcats - And good fellas
DYEAR=1999
DGENRE=Swing Boogie
TTITLE0=Rock'n' Call
TTITLE1=Ay la bas
TTITLE2=Why
TTITLE3=Good rockin' daddy
TTITLE4=Dream Lucky
TTITLE5=Mary Lou's
TTITLE6=I ain't gonna cry no more
TTITLE7=Bongo Boogie
TTITLE8=Eight to the bar
TTITLE9=These arms of mine
TTITLE10=Sweet Sue 
TTITLE11=Gisela
TTITLE12=Four to the bar
TTITLE13=My Rifle, my Pony and me
EXTD=
EXTT0=
EXTT1=
EXTT2=
EXTT3=
EXTT4=
EXTT5=
EXTT6=
EXTT7=
EXTT8=
EXTT9=
EXTT10=
EXTT11=
EXTT12=
EXTT13=
PLAYORDER=
